<svg viewBox="0 0 64 64" fill="none" xmlns="http://www.w3.org/2000/svg">
  <!-- top-left finder square -->
  <rect x="8"  y="8"  width="18" height="18" rx="3" fill="#00838F"/>
  <rect x="11" y="11" width="12" height="12" rx="1.5" fill="#FAF9F6"/>
  <rect x="13" y="13" width="8"  height="8"  rx="1" fill="#00838F"/>
  <!-- top-right finder square -->
  <rect x="38" y="8"  width="18" height="18" rx="3" fill="#00838F"/>
  <rect x="41" y="11" width="12" height="12" rx="1.5" fill="#FAF9F6"/>
  <rect x="43" y="13" width="8"  height="8"  rx="1" fill="#00838F"/>
  <!-- bottom-left finder square -->
  <rect x="8"  y="38" width="18" height="18" rx="3" fill="#00838F"/>
  <rect x="11" y="41" width="12" height="12" rx="1.5" fill="#FAF9F6"/>
  <rect x="13" y="43" width="8"  height="8"  rx="1" fill="#00838F"/>
  <!-- data modules (bottom-right area) -->
  <rect x="38" y="38" width="5" height="5" rx="1" fill="#00838F"/>
  <rect x="45" y="38" width="5" height="5" rx="1" fill="#00838F"/>
  <rect x="51" y="38" width="5" height="5" rx="1" fill="#00838F" opacity="0.6"/>
  <rect x="38" y="45" width="5" height="5" rx="1" fill="#00838F" opacity="0.6"/>
  <rect x="45" y="45" width="5" height="5" rx="1" fill="#00838F"/>
  <rect x="51" y="51" width="5" height="5" rx="1" fill="#00838F"/>
  <rect x="38" y="51" width="5" height="5" rx="1" fill="#00838F" opacity="0.6"/>
  <!-- scan line -->
  <rect x="6" y="30" width="52" height="3" rx="1.5" fill="#00BCD4" opacity="0.6"/>
  <rect x="6" y="30" width="52" height="1" rx="0.5" fill="#00BCD4" opacity="0.8"/>
</svg>
