<svg viewBox="0 0 64 64" fill="none" xmlns="http://www.w3.org/2000/svg">
  <!-- clipboard shadow -->
  <rect x="13" y="13" width="40" height="48" rx="6" fill="#1B5E20" opacity="0.25"/>
  <!-- clipboard body -->
  <rect x="11" y="11" width="40" height="48" rx="6" fill="#43A047"/>
  <!-- clip top -->
  <rect x="22" y="7"  width="18" height="9" rx="4" fill="#2E7D32"/>
  <rect x="25" y="9"  width="12" height="5" rx="2.5" fill="#1B5E20"/>
  <!-- row 1 — checked -->
  <circle cx="22" cy="28" r="5" fill="white" opacity="0.9"/>
  <path d="M19.5 28 L21.5 30 L25 25.5" stroke="#43A047" stroke-width="2" stroke-linecap="round" stroke-linejoin="round"/>
  <rect x="30" y="25.5" width="16" height="3" rx="1.5" fill="white" opacity="0.6"/>
  <!-- row 2 — checked -->
  <circle cx="22" cy="38" r="5" fill="white" opacity="0.9"/>
  <path d="M19.5 38 L21.5 40 L25 35.5" stroke="#43A047" stroke-width="2" stroke-linecap="round" stroke-linejoin="round"/>
  <rect x="30" y="35.5" width="12" height="3" rx="1.5" fill="white" opacity="0.6"/>
  <!-- row 3 — pending (clock icon) -->
  <circle cx="22" cy="48" r="5" fill="white" opacity="0.4"/>
  <rect x="30" y="45.5" width="14" height="3" rx="1.5" fill="white" opacity="0.3"/>
  <!-- clock hands in pending circle -->
  <line x1="22" y1="45.5" x2="22" y2="48" stroke="#43A047" stroke-width="1.5" stroke-linecap="round"/>
  <line x1="22" y1="48"   x2="24" y2="50" stroke="#43A047" stroke-width="1.5" stroke-linecap="round"/>
</svg>
